<?xml version="1.0" standalone="no"?>
<!DOCTYPE svg PUBLIC "-//W3C//DTD SVG 20010904//EN"
 "http://www.w3.org/TR/2001/REC-SVG-20010904/DTD/svg10.dtd">
<svg class="img-fluid" id="outputsvg" xmlns="http://www.w3.org/2000/svg" style="transform: matrix(2.44719, 0, 0, 2.44719, 13.0769, 98.154); transform-origin: 50% 50%; cursor: move; max-height: 402.58px; transition: none 0s ease 0s;" width="161" height="149" viewBox="0 0 1610 1490"><g id="l6eFsPtfsBkJQEEhH7TJVNzj" fill="rgb(255,255,255)" stroke="rgb(255,255,255)" stroke-width="1" fill-rule="evenodd" style="transform: none;"><g style="transform: none;"><path id="p107ttVav1" d="M0 745 L0 0 805 0 L1610 0 1610 745 L1610 1490 805 1490 L0 1490 0 745 M625 1132 C418 922 393 886 368 770 C354 699 362 568 385 510 C434 384 541 279 668 233 C731 209 761 205 836 205 C887 205 931 208 936 213 C940 217 867 297 772 391 C591 571 570 602 570 690 C570 763 595 798 790 995 L979 1185 904 1257 C863 1297 827 1330 825 1330 C822 1330 732 1241 625 1132 M1014 1002 L949 934 996 889 C1077 810 1113 689 1075 620 C1062 596 1062 596 947 708 L833 820 781 765 C701 680 698 685 913 471 L1097 287 1126 307 C1295 429 1350 693 1247 895 C1225 937 1106 1070 1090 1070 C1084 1070 1050 1039 1014 1002 "></path></g></g><g id="l1h5vCIVxxJZYdECMlR67jpj" fill="rgb(248,144,31)" stroke="rgb(248,144,31)" stroke-width="1" fill-rule="evenodd" style="transform: none;"><g style="transform: none;"><path id="pR7Rh87fH" d="M625 1132 C418 922 393 886 368 770 C354 699 362 568 385 510 C434 384 541 279 668 233 C731 209 761 205 836 205 C887 205 931 208 936 213 C940 217 867 297 772 391 C591 571 570 602 570 690 C570 763 595 798 790 995 L979 1185 904 1257 C863 1297 827 1330 825 1330 C822 1330 732 1241 625 1132 "></path><path id="pIoaxpfTW" d="M1014 1002 L949 934 996 889 C1077 810 1113 689 1075 620 C1062 596 1062 596 947 708 L833 820 781 765 C701 680 698 685 913 471 L1097 287 1126 307 C1295 429 1350 693 1247 895 C1225 937 1106 1070 1090 1070 C1084 1070 1050 1039 1014 1002 "></path></g></g></svg>